<mxfile host="Electron" modified="2024-01-10T04:00:52.766Z" agent="Mozilla/5.0 (Windows NT 10.0; Win64; x64) AppleWebKit/537.36 (KHTML, like Gecko) draw.io/22.1.16 Chrome/120.0.6099.109 Electron/28.1.0 Safari/537.36" etag="57sFa1PE0O7FoAPxfMts" version="22.1.16" type="device">
  <diagram name="Page-1" id="Trj2E5kWIgqJfBERm6sS">
    <mxGraphModel dx="1098" dy="988" grid="1" gridSize="10" guides="1" tooltips="1" connect="1" arrows="1" fold="1" page="1" pageScale="1" pageWidth="850" pageHeight="1100" math="0" shadow="0">
      <root>
        <mxCell id="0" />
        <mxCell id="1" parent="0" />
        <mxCell id="BIEf6hILi-mS5OzLNT0E-9" value="1. Makes changes" style="edgeStyle=orthogonalEdgeStyle;rounded=0;orthogonalLoop=1;jettySize=auto;html=1;" edge="1" parent="1" source="BIEf6hILi-mS5OzLNT0E-2" target="BIEf6hILi-mS5OzLNT0E-3">
          <mxGeometry relative="1" as="geometry" />
        </mxCell>
        <mxCell id="BIEf6hILi-mS5OzLNT0E-2" value="" style="sketch=0;outlineConnect=0;fontColor=#232F3E;gradientColor=none;fillColor=#232F3D;strokeColor=none;dashed=0;verticalLabelPosition=bottom;verticalAlign=top;align=center;html=1;fontSize=12;fontStyle=0;aspect=fixed;pointerEvents=1;shape=mxgraph.aws4.user;" vertex="1" parent="1">
          <mxGeometry x="80" y="310" width="78" height="78" as="geometry" />
        </mxCell>
        <mxCell id="BIEf6hILi-mS5OzLNT0E-10" value="2. Change event detected" style="edgeStyle=orthogonalEdgeStyle;rounded=0;orthogonalLoop=1;jettySize=auto;html=1;" edge="1" parent="1" source="BIEf6hILi-mS5OzLNT0E-3" target="BIEf6hILi-mS5OzLNT0E-4">
          <mxGeometry relative="1" as="geometry" />
        </mxCell>
        <mxCell id="BIEf6hILi-mS5OzLNT0E-3" value="" style="sketch=0;points=[[0,0,0],[0.25,0,0],[0.5,0,0],[0.75,0,0],[1,0,0],[0,1,0],[0.25,1,0],[0.5,1,0],[0.75,1,0],[1,1,0],[0,0.25,0],[0,0.5,0],[0,0.75,0],[1,0.25,0],[1,0.5,0],[1,0.75,0]];points=[[0,0,0],[0.25,0,0],[0.5,0,0],[0.75,0,0],[1,0,0],[0,1,0],[0.25,1,0],[0.5,1,0],[0.75,1,0],[1,1,0],[0,0.25,0],[0,0.5,0],[0,0.75,0],[1,0.25,0],[1,0.5,0],[1,0.75,0]];outlineConnect=0;fontColor=#232F3E;fillColor=#E7157B;strokeColor=#ffffff;dashed=0;verticalLabelPosition=bottom;verticalAlign=top;align=center;html=1;fontSize=12;fontStyle=0;aspect=fixed;shape=mxgraph.aws4.resourceIcon;resIcon=mxgraph.aws4.cloudtrail;" vertex="1" parent="1">
          <mxGeometry x="330" y="310" width="78" height="78" as="geometry" />
        </mxCell>
        <mxCell id="BIEf6hILi-mS5OzLNT0E-11" value="3. Triggers the function" style="edgeStyle=orthogonalEdgeStyle;rounded=0;orthogonalLoop=1;jettySize=auto;html=1;" edge="1" parent="1" source="BIEf6hILi-mS5OzLNT0E-4" target="BIEf6hILi-mS5OzLNT0E-5">
          <mxGeometry relative="1" as="geometry" />
        </mxCell>
        <mxCell id="BIEf6hILi-mS5OzLNT0E-4" value="" style="sketch=0;points=[[0,0,0],[0.25,0,0],[0.5,0,0],[0.75,0,0],[1,0,0],[0,1,0],[0.25,1,0],[0.5,1,0],[0.75,1,0],[1,1,0],[0,0.25,0],[0,0.5,0],[0,0.75,0],[1,0.25,0],[1,0.5,0],[1,0.75,0]];outlineConnect=0;fontColor=#232F3E;fillColor=#E7157B;strokeColor=#ffffff;dashed=0;verticalLabelPosition=bottom;verticalAlign=top;align=center;html=1;fontSize=12;fontStyle=0;aspect=fixed;shape=mxgraph.aws4.resourceIcon;resIcon=mxgraph.aws4.eventbridge;" vertex="1" parent="1">
          <mxGeometry x="580" y="310" width="78" height="78" as="geometry" />
        </mxCell>
        <mxCell id="BIEf6hILi-mS5OzLNT0E-5" value="" style="sketch=0;points=[[0,0,0],[0.25,0,0],[0.5,0,0],[0.75,0,0],[1,0,0],[0,1,0],[0.25,1,0],[0.5,1,0],[0.75,1,0],[1,1,0],[0,0.25,0],[0,0.5,0],[0,0.75,0],[1,0.25,0],[1,0.5,0],[1,0.75,0]];outlineConnect=0;fontColor=#232F3E;fillColor=#ED7100;strokeColor=#ffffff;dashed=0;verticalLabelPosition=bottom;verticalAlign=top;align=center;html=1;fontSize=12;fontStyle=0;aspect=fixed;shape=mxgraph.aws4.resourceIcon;resIcon=mxgraph.aws4.lambda;" vertex="1" parent="1">
          <mxGeometry x="838" y="310" width="78" height="78" as="geometry" />
        </mxCell>
        <mxCell id="BIEf6hILi-mS5OzLNT0E-14" value="5. Sends email" style="edgeStyle=orthogonalEdgeStyle;rounded=0;orthogonalLoop=1;jettySize=auto;html=1;" edge="1" parent="1" source="BIEf6hILi-mS5OzLNT0E-6" target="BIEf6hILi-mS5OzLNT0E-7">
          <mxGeometry relative="1" as="geometry" />
        </mxCell>
        <mxCell id="BIEf6hILi-mS5OzLNT0E-6" value="" style="sketch=0;points=[[0,0,0],[0.25,0,0],[0.5,0,0],[0.75,0,0],[1,0,0],[0,1,0],[0.25,1,0],[0.5,1,0],[0.75,1,0],[1,1,0],[0,0.25,0],[0,0.5,0],[0,0.75,0],[1,0.25,0],[1,0.5,0],[1,0.75,0]];outlineConnect=0;fontColor=#232F3E;fillColor=#E7157B;strokeColor=#ffffff;dashed=0;verticalLabelPosition=bottom;verticalAlign=top;align=center;html=1;fontSize=12;fontStyle=0;aspect=fixed;shape=mxgraph.aws4.resourceIcon;resIcon=mxgraph.aws4.sns;" vertex="1" parent="1">
          <mxGeometry x="1100" y="310" width="78" height="78" as="geometry" />
        </mxCell>
        <mxCell id="BIEf6hILi-mS5OzLNT0E-7" value="" style="sketch=0;outlineConnect=0;fontColor=#232F3E;gradientColor=none;fillColor=#232F3D;strokeColor=none;dashed=0;verticalLabelPosition=bottom;verticalAlign=top;align=center;html=1;fontSize=12;fontStyle=0;aspect=fixed;pointerEvents=1;shape=mxgraph.aws4.email_2;" vertex="1" parent="1">
          <mxGeometry x="1320" y="324.5" width="78" height="49" as="geometry" />
        </mxCell>
        <mxCell id="BIEf6hILi-mS5OzLNT0E-12" value="6. Re-enable loggin (conditional)" style="edgeStyle=orthogonalEdgeStyle;rounded=0;orthogonalLoop=1;jettySize=auto;html=1;entryX=0.5;entryY=0;entryDx=0;entryDy=0;entryPerimeter=0;" edge="1" parent="1" source="BIEf6hILi-mS5OzLNT0E-5" target="BIEf6hILi-mS5OzLNT0E-3">
          <mxGeometry relative="1" as="geometry">
            <Array as="points">
              <mxPoint x="877" y="250" />
              <mxPoint x="349" y="250" />
            </Array>
          </mxGeometry>
        </mxCell>
        <mxCell id="BIEf6hILi-mS5OzLNT0E-13" value="4. Publish message" style="edgeStyle=orthogonalEdgeStyle;rounded=0;orthogonalLoop=1;jettySize=auto;html=1;entryX=0;entryY=0.5;entryDx=0;entryDy=0;entryPerimeter=0;" edge="1" parent="1" source="BIEf6hILi-mS5OzLNT0E-5" target="BIEf6hILi-mS5OzLNT0E-6">
          <mxGeometry relative="1" as="geometry" />
        </mxCell>
      </root>
    </mxGraphModel>
  </diagram>
</mxfile>
